<svg id="svg" version="1.1" xmlns="http://www.w3.org/2000/svg" xmlns:xlink="http://www.w3.org/1999/xlink" width="400" height="278.8571428571429" viewBox="0, 0, 400,278.8571428571429"><g id="svgg"><path id="path0" d="M90.377 33.497 C 78.941 34.965,70.105 41.019,64.029 51.548 C 63.525 52.423,62.452 54.268,61.644 55.649 C 60.837 57.029,58.767 60.669,57.044 63.738 C 55.321 66.806,53.017 70.886,51.923 72.803 C 50.830 74.721,49.526 77.017,49.026 77.907 C 48.526 78.796,47.670 80.302,47.122 81.254 C 46.575 82.206,45.390 84.303,44.488 85.914 C 43.586 87.524,42.162 90.035,41.322 91.492 C 39.803 94.130,37.529 98.207,34.164 104.327 C 33.193 106.094,32.122 108.290,31.784 109.209 C 31.446 110.127,31.013 111.067,30.823 111.297 C 30.633 111.527,30.133 112.343,29.713 113.110 C 28.741 114.888,27.110 117.646,26.494 118.557 C 25.592 119.890,23.080 125.107,22.401 127.057 C 20.872 131.449,20.655 132.305,20.340 135.196 C 19.186 145.783,20.775 152.073,27.479 163.459 C 28.066 164.456,28.983 166.088,29.516 167.085 C 30.050 168.082,30.648 169.087,30.845 169.318 C 31.042 169.549,31.528 170.637,31.925 171.737 C 32.577 173.545,33.986 176.157,40.245 187.169 C 42.500 191.135,43.918 193.644,45.607 196.653 C 46.253 197.803,47.319 199.686,47.978 200.837 C 48.636 201.987,49.703 203.870,50.349 205.021 C 50.995 206.172,52.023 207.992,52.635 209.066 C 53.246 210.139,55.195 213.591,56.965 216.736 C 68.808 237.774,73.544 242.478,86.951 246.513 C 88.954 247.116,176.444 247.437,180.614 246.857 C 189.502 245.620,200.086 238.822,203.622 232.078 C 203.824 231.695,204.291 231.017,204.661 230.572 C 205.031 230.127,205.711 229.060,206.171 228.201 C 206.632 227.342,207.582 225.635,208.282 224.407 C 208.983 223.180,209.963 221.423,210.461 220.502 C 210.958 219.582,211.882 217.887,212.514 216.736 C 213.145 215.586,214.172 213.703,214.796 212.552 C 215.419 211.402,216.442 209.582,217.069 208.508 C 219.214 204.833,221.552 200.419,221.945 199.303 C 222.160 198.689,222.629 197.745,222.985 197.204 C 225.125 193.962,225.275 192.162,223.565 190.266 C 223.066 189.713,222.197 188.445,221.632 187.448 C 221.068 186.450,219.969 184.568,219.191 183.264 C 218.413 181.960,217.468 180.328,217.091 179.637 C 216.715 178.947,216.235 178.190,216.025 177.954 C 215.815 177.719,215.335 176.840,214.959 176.002 C 214.583 175.163,213.950 174.045,213.553 173.516 C 213.156 172.988,212.831 172.418,212.831 172.250 C 212.831 172.081,212.235 170.987,211.506 169.818 C 210.778 168.648,209.679 166.797,209.066 165.703 C 208.452 164.609,207.573 163.060,207.112 162.261 C 206.651 161.463,206.030 160.244,205.732 159.554 C 205.434 158.863,204.983 157.985,204.728 157.601 C 203.567 155.849,201.528 150.711,200.411 146.722 C 199.368 142.996,198.842 142.222,198.478 143.879 C 198.310 144.643,196.378 148.593,194.494 152.022 C 193.426 153.968,190.986 158.082,188.703 161.787 C 188.243 162.534,187.522 163.750,187.102 164.488 C 186.682 165.226,185.772 166.771,185.080 167.922 C 184.387 169.073,183.372 170.830,182.824 171.827 C 182.276 172.824,181.220 174.707,180.476 176.011 C 179.733 177.315,178.740 179.114,178.269 180.008 C 177.798 180.903,177.177 181.970,176.889 182.379 C 176.602 182.789,176.098 183.689,175.769 184.379 C 174.551 186.943,171.573 191.382,169.909 193.116 C 168.243 194.853,165.805 196.192,163.180 196.813 C 160.745 197.389,117.821 197.719,110.252 197.220 C 102.508 196.710,99.313 194.030,92.859 182.631 C 88.598 175.105,87.089 172.471,86.111 170.851 C 85.648 170.084,84.868 168.766,84.379 167.922 C 83.890 167.078,82.169 164.191,80.556 161.506 C 68.221 140.978,68.066 139.575,76.572 125.511 C 83.357 114.294,85.838 110.154,86.805 108.438 C 98.510 87.668,100.960 84.706,107.567 83.336 C 110.395 82.749,159.914 82.882,162.588 83.483 C 167.978 84.695,172.718 89.398,176.285 97.071 C 176.606 97.762,177.488 99.393,178.245 100.697 C 179.002 102.001,180.019 103.821,180.505 104.742 C 180.991 105.662,181.685 106.804,182.047 107.279 C 182.410 107.754,182.706 108.256,182.707 108.395 C 182.708 108.533,183.091 109.212,183.559 109.902 C 184.027 110.593,184.783 111.848,185.240 112.692 C 185.696 113.536,186.686 115.230,187.439 116.457 C 188.192 117.685,189.082 119.186,189.418 119.793 C 189.754 120.400,190.421 121.487,190.900 122.209 C 191.379 122.930,192.336 124.548,193.026 125.804 C 193.717 127.060,194.666 128.680,195.135 129.404 C 196.578 131.630,198.326 134.954,198.326 135.472 C 198.326 136.381,199.130 135.246,199.552 133.741 C 200.761 129.425,204.541 121.105,208.102 114.923 C 208.853 113.619,209.856 111.862,210.332 111.018 C 210.807 110.174,211.743 108.543,212.413 107.392 C 213.083 106.241,214.071 104.484,214.610 103.487 C 215.149 102.490,215.973 101.109,216.441 100.418 C 216.909 99.728,217.292 99.057,217.293 98.927 C 217.294 98.798,217.540 98.347,217.840 97.925 C 218.140 97.504,218.817 96.355,219.345 95.372 C 219.873 94.389,220.813 92.641,221.433 91.487 C 222.053 90.334,222.883 89.087,223.278 88.716 C 224.615 87.460,224.701 86.213,223.583 84.335 C 223.048 83.438,222.280 81.889,221.875 80.892 C 221.470 79.895,220.911 78.760,220.633 78.370 C 220.355 77.980,219.806 76.975,219.414 76.138 C 219.021 75.301,218.071 73.550,217.303 72.245 C 216.534 70.941,215.456 69.059,214.906 68.061 C 214.356 67.064,213.297 65.181,212.553 63.877 C 211.808 62.573,210.814 60.753,210.344 59.833 C 209.873 58.912,208.867 57.092,208.107 55.788 C 207.348 54.484,206.401 52.816,206.003 52.081 C 204.569 49.435,200.591 44.421,198.047 42.055 C 192.630 37.015,187.134 34.453,179.918 33.604 C 175.992 33.142,93.906 33.044,90.377 33.497 " stroke="none" fill="#fb7d26" fill-rule="evenodd"></path><path id="path1" d="M270.293 33.607 C 264.655 34.443,259.539 36.809,253.975 41.154 C 250.572 43.811,250.749 43.587,243.906 53.942 C 242.577 55.954,240.977 58.534,240.427 59.554 C 240.096 60.167,239.543 61.046,239.198 61.506 C 238.854 61.967,238.171 63.096,237.681 64.017 C 237.191 64.937,236.276 66.569,235.649 67.643 C 233.627 71.103,232.135 73.740,231.228 75.453 C 230.740 76.374,230.178 77.315,229.979 77.545 C 229.779 77.775,229.123 78.905,228.521 80.056 C 226.530 83.863,225.629 85.348,225.076 85.735 C 224.000 86.488,223.875 87.902,224.818 88.640 C 225.314 89.029,226.513 90.912,227.815 93.351 C 231.033 99.375,231.615 100.422,232.587 101.937 C 233.074 102.696,233.473 103.464,233.473 103.643 C 233.473 103.823,233.734 104.302,234.054 104.709 C 234.374 105.115,235.144 106.356,235.766 107.466 C 236.885 109.464,237.962 111.354,240.214 115.272 C 240.853 116.384,241.806 118.110,242.331 119.107 C 242.857 120.105,243.387 121.046,243.510 121.199 C 244.100 121.939,246.664 127.251,247.144 128.731 C 247.443 129.651,247.972 131.158,248.319 132.078 C 248.908 133.641,248.949 134.168,248.936 140.028 L 248.922 146.304 247.723 149.791 C 247.063 151.709,246.010 154.344,245.381 155.649 C 243.650 159.241,239.932 166.211,238.908 167.782 C 237.891 169.344,236.997 170.890,235.681 173.361 C 235.190 174.282,234.493 175.423,234.131 175.898 C 233.769 176.373,233.473 176.882,233.473 177.029 C 233.473 177.176,233.067 177.917,232.570 178.676 C 231.514 180.289,230.337 182.301,228.744 185.216 C 225.839 190.531,225.321 191.353,224.873 191.353 C 224.327 191.353,224.705 193.812,225.366 194.561 C 225.844 195.102,226.572 196.370,228.729 200.418 C 229.301 201.492,230.246 203.250,230.829 204.324 C 231.411 205.397,232.449 207.343,233.135 208.647 C 233.821 209.951,234.920 212.022,235.577 213.250 C 236.235 214.477,237.224 216.360,237.776 217.434 C 238.329 218.508,239.312 220.350,239.962 221.529 C 240.612 222.707,241.681 224.652,242.339 225.852 C 249.978 239.796,257.932 245.784,269.975 246.658 C 276.923 247.162,361.828 247.126,362.439 246.619 C 363.171 246.011,363.058 243.470,362.235 242.030 C 361.868 241.389,361.416 240.363,361.230 239.749 C 360.714 238.048,356.736 229.736,354.289 225.244 C 353.453 223.710,352.319 221.595,351.768 220.544 C 351.218 219.494,350.244 217.674,349.604 216.500 C 348.965 215.326,348.083 213.675,347.644 212.831 C 347.206 211.987,346.505 210.797,346.087 210.186 C 345.670 209.575,345.328 208.935,345.328 208.763 C 345.328 208.591,344.763 207.591,344.073 206.540 C 343.382 205.489,342.817 204.515,342.817 204.377 C 342.817 204.239,342.438 203.564,341.974 202.877 C 341.511 202.190,340.888 201.150,340.589 200.565 C 339.644 198.712,337.392 196.991,335.621 196.770 C 334.786 196.665,323.542 196.563,310.636 196.542 C 285.061 196.500,286.058 196.561,283.264 194.878 C 281.286 193.687,278.355 190.383,276.269 186.994 C 275.974 186.515,275.363 185.573,274.911 184.902 C 273.778 183.219,271.037 178.920,268.805 175.327 C 268.371 174.627,267.700 173.459,267.316 172.732 C 266.931 172.004,266.453 171.220,266.255 170.990 C 266.056 170.760,265.548 169.881,265.125 169.038 C 264.702 168.194,264.060 167.115,263.698 166.640 C 263.336 166.166,263.040 165.657,263.040 165.509 C 263.040 165.362,262.645 164.621,262.162 163.862 C 261.679 163.103,260.943 161.855,260.527 161.088 C 260.112 160.321,259.195 158.689,258.490 157.462 C 257.121 155.077,256.036 153.029,253.310 147.687 C 249.593 140.402,250.446 136.310,258.298 123.757 C 260.331 120.508,261.727 118.159,262.636 116.457 C 263.046 115.690,263.664 114.686,264.009 114.226 C 264.354 113.766,265.036 112.636,265.526 111.715 C 266.015 110.795,266.972 109.100,267.651 107.950 C 268.331 106.799,269.222 105.230,269.630 104.463 C 270.038 103.696,270.654 102.692,270.999 102.232 C 271.343 101.771,271.960 100.767,272.369 100.000 C 277.523 90.341,281.278 86.110,286.172 84.445 L 288.006 83.821 312.682 83.771 L 337.358 83.720 338.543 82.376 C 339.195 81.637,340.120 80.279,340.597 79.358 C 341.075 78.438,341.640 77.492,341.852 77.256 C 342.064 77.020,342.509 76.205,342.841 75.443 C 343.173 74.682,343.620 73.857,343.834 73.611 C 344.049 73.365,344.704 72.235,345.291 71.101 C 345.877 69.966,346.858 68.096,347.470 66.946 C 350.911 60.485,357.591 47.332,360.078 42.120 C 364.336 33.199,364.695 33.674,353.512 33.433 C 337.427 33.088,272.887 33.222,270.293 33.607 M198.954 135.273 C 198.310 136.313,198.481 142.885,199.163 143.310 C 199.706 143.649,199.720 143.593,199.685 141.216 C 199.618 136.757,199.356 134.624,198.954 135.273 " stroke="none" fill="#3095b5" fill-rule="evenodd"></path><path id="path2" d="M223.104 88.912 C 222.713 89.334,221.923 90.558,221.347 91.632 C 220.772 92.706,219.870 94.389,219.343 95.372 C 218.816 96.355,218.140 97.504,217.840 97.925 C 217.540 98.347,217.294 98.798,217.293 98.927 C 217.292 99.057,216.909 99.728,216.441 100.418 C 215.973 101.109,215.149 102.490,214.610 103.487 C 214.071 104.484,213.083 106.241,212.413 107.392 C 211.743 108.543,210.807 110.174,210.332 111.018 C 209.856 111.862,208.853 113.619,208.102 114.923 C 206.295 118.059,201.842 127.040,201.394 128.452 C 201.200 129.066,200.672 130.503,200.221 131.647 L 199.403 133.726 199.590 139.178 C 199.783 144.793,200.065 146.370,201.665 150.767 C 202.410 152.813,204.196 156.797,204.728 157.601 C 204.983 157.985,205.434 158.863,205.732 159.554 C 206.030 160.244,206.651 161.463,207.112 162.261 C 207.573 163.060,208.452 164.609,209.066 165.703 C 209.679 166.797,210.778 168.648,211.506 169.818 C 212.235 170.987,212.831 172.081,212.831 172.250 C 212.831 172.418,213.156 172.988,213.553 173.516 C 213.950 174.045,214.583 175.163,214.959 176.002 C 215.335 176.840,215.815 177.719,216.025 177.954 C 216.235 178.190,216.715 178.947,217.091 179.637 C 217.468 180.328,218.413 181.960,219.191 183.264 C 219.970 184.568,221.113 186.513,221.731 187.587 C 222.962 189.723,224.334 191.353,224.901 191.353 C 225.320 191.353,225.873 190.469,228.744 185.216 C 230.337 182.301,231.514 180.289,232.570 178.676 C 233.067 177.917,233.473 177.176,233.473 177.029 C 233.473 176.882,233.769 176.373,234.131 175.898 C 234.493 175.423,235.190 174.282,235.681 173.361 C 236.997 170.890,237.891 169.344,238.908 167.782 C 239.932 166.211,243.650 159.241,245.381 155.649 C 246.010 154.344,247.063 151.709,247.723 149.791 L 248.922 146.304 248.936 140.028 C 248.949 134.168,248.908 133.641,248.319 132.078 C 247.972 131.158,247.443 129.651,247.144 128.731 C 246.664 127.251,244.100 121.939,243.510 121.199 C 243.387 121.046,242.857 120.105,242.331 119.107 C 241.806 118.110,240.870 116.416,240.252 115.342 C 238.492 112.284,236.916 109.516,235.728 107.396 C 235.127 106.324,234.374 105.115,234.054 104.709 C 233.734 104.302,233.473 103.823,233.473 103.643 C 233.473 103.464,233.074 102.696,232.587 101.937 C 231.615 100.422,231.033 99.375,227.815 93.351 C 225.087 88.244,224.359 87.557,223.104 88.912 " stroke="none" fill="#20490b" fill-rule="evenodd"></path><path id="path3" d="M1.116 139.470 L 1.116 278.940 200.558 278.940 L 400.000 278.940 400.000 139.470 L 400.000 0.000 200.558 0.000 L 1.116 0.000 1.116 139.470 M179.918 33.604 C 189.815 34.769,197.136 39.436,203.917 48.906 C 205.339 50.892,206.770 53.323,210.186 59.554 C 210.859 60.781,211.925 62.727,212.556 63.877 C 213.657 65.886,214.694 67.716,217.299 72.245 C 217.960 73.396,218.960 75.216,219.521 76.290 C 220.081 77.364,220.743 78.619,220.991 79.079 C 221.239 79.540,222.022 81.131,222.731 82.615 C 224.876 87.103,224.822 87.127,228.521 80.056 C 229.123 78.905,229.779 77.775,229.979 77.545 C 230.178 77.315,230.740 76.374,231.228 75.453 C 232.135 73.740,233.627 71.103,235.649 67.643 C 236.276 66.569,237.191 64.937,237.681 64.017 C 238.171 63.096,238.854 61.967,239.198 61.506 C 239.543 61.046,240.096 60.167,240.427 59.554 C 240.977 58.534,242.577 55.954,243.906 53.942 C 250.750 43.584,250.574 43.808,253.975 41.156 C 259.616 36.758,264.711 34.414,270.382 33.608 C 273.424 33.175,335.458 33.045,353.512 33.433 C 364.695 33.674,364.336 33.199,360.078 42.120 C 357.585 47.344,350.712 60.877,347.540 66.806 C 346.966 67.880,345.985 69.750,345.360 70.961 C 344.736 72.173,344.049 73.365,343.834 73.611 C 343.620 73.857,343.173 74.682,342.841 75.443 C 342.509 76.205,342.064 77.020,341.852 77.256 C 341.640 77.492,341.075 78.438,340.597 79.358 C 340.120 80.279,339.195 81.637,338.543 82.376 L 337.358 83.720 312.682 83.771 L 288.006 83.821 286.172 84.445 C 281.278 86.110,277.523 90.341,272.369 100.000 C 271.960 100.767,271.343 101.771,270.999 102.232 C 270.654 102.692,270.038 103.696,269.630 104.463 C 269.222 105.230,268.331 106.799,267.651 107.950 C 266.972 109.100,266.015 110.795,265.526 111.715 C 265.036 112.636,264.354 113.766,264.009 114.226 C 263.664 114.686,263.046 115.690,262.636 116.457 C 261.727 118.159,260.331 120.508,258.298 123.757 C 250.446 136.310,249.593 140.402,253.310 147.687 C 256.036 153.029,257.121 155.077,258.490 157.462 C 259.195 158.689,260.112 160.321,260.527 161.088 C 260.943 161.855,261.679 163.103,262.162 163.862 C 262.645 164.621,263.040 165.362,263.040 165.509 C 263.040 165.657,263.336 166.166,263.698 166.640 C 264.060 167.115,264.702 168.194,265.125 169.038 C 265.548 169.881,266.056 170.760,266.255 170.990 C 266.453 171.220,266.931 172.004,267.316 172.732 C 267.700 173.459,268.371 174.627,268.805 175.327 C 271.037 178.920,273.778 183.219,274.911 184.902 C 275.363 185.573,275.974 186.515,276.269 186.994 C 278.355 190.383,281.286 193.687,283.264 194.878 C 286.058 196.561,285.061 196.500,310.636 196.542 C 323.542 196.563,334.786 196.665,335.621 196.770 C 337.392 196.991,339.644 198.712,340.589 200.565 C 340.888 201.150,341.511 202.190,341.974 202.877 C 342.438 203.564,342.817 204.239,342.817 204.377 C 342.817 204.515,343.382 205.489,344.073 206.540 C 344.763 207.591,345.328 208.591,345.328 208.763 C 345.328 208.935,345.670 209.575,346.087 210.186 C 346.505 210.797,347.206 211.987,347.644 212.831 C 348.083 213.675,348.965 215.326,349.604 216.500 C 350.244 217.674,351.218 219.494,351.768 220.544 C 352.319 221.595,353.453 223.710,354.289 225.244 C 356.736 229.736,360.714 238.048,361.230 239.749 C 361.416 240.363,361.868 241.389,362.235 242.030 C 363.058 243.470,363.171 246.011,362.439 246.619 C 361.828 247.126,276.923 247.162,269.975 246.658 C 257.932 245.784,249.978 239.796,242.339 225.852 C 241.681 224.652,240.612 222.707,239.962 221.529 C 239.312 220.350,238.329 218.508,237.776 217.434 C 237.224 216.360,236.235 214.477,235.577 213.250 C 234.920 212.022,233.821 209.951,233.135 208.647 C 232.449 207.343,231.411 205.397,230.829 204.324 C 230.246 203.250,229.300 201.492,228.726 200.418 C 225.612 194.592,224.895 193.526,224.628 194.321 C 224.569 194.496,224.017 195.475,223.401 196.496 C 222.785 197.516,222.117 198.817,221.917 199.385 C 221.548 200.432,219.154 204.936,217.069 208.508 C 216.442 209.582,215.419 211.402,214.796 212.552 C 214.172 213.703,213.145 215.586,212.514 216.736 C 211.882 217.887,210.958 219.582,210.461 220.502 C 209.963 221.423,208.983 223.180,208.282 224.407 C 207.582 225.635,206.632 227.342,206.171 228.201 C 205.711 229.060,205.031 230.127,204.661 230.572 C 204.291 231.017,203.824 231.695,203.622 232.078 C 200.086 238.822,189.502 245.620,180.614 246.857 C 176.444 247.437,88.954 247.116,86.951 246.513 C 73.544 242.478,68.808 237.774,56.965 216.736 C 55.195 213.591,53.246 210.139,52.635 209.066 C 52.023 207.992,50.995 206.172,50.349 205.021 C 49.703 203.870,48.636 201.987,47.978 200.837 C 47.319 199.686,46.253 197.803,45.607 196.653 C 43.918 193.644,42.500 191.135,40.245 187.169 C 33.986 176.157,32.577 173.545,31.925 171.737 C 31.528 170.637,31.042 169.549,30.845 169.318 C 30.648 169.087,30.050 168.082,29.516 167.085 C 28.983 166.088,28.066 164.456,27.479 163.459 C 20.775 152.073,19.186 145.783,20.340 135.196 C 20.655 132.305,20.872 131.449,22.401 127.057 C 23.080 125.107,25.592 119.890,26.494 118.557 C 27.110 117.646,28.741 114.888,29.713 113.110 C 30.133 112.343,30.633 111.527,30.823 111.297 C 31.013 111.067,31.446 110.127,31.784 109.209 C 32.122 108.290,33.193 106.094,34.164 104.327 C 37.529 98.207,39.803 94.130,41.322 91.492 C 42.162 90.035,43.586 87.524,44.488 85.914 C 45.390 84.303,46.575 82.206,47.122 81.254 C 47.670 80.302,48.526 78.796,49.026 77.907 C 49.526 77.017,50.830 74.721,51.923 72.803 C 53.017 70.886,55.321 66.806,57.044 63.738 C 58.767 60.669,60.837 57.029,61.644 55.649 C 62.452 54.268,63.525 52.423,64.029 51.548 C 70.105 41.019,78.941 34.965,90.377 33.497 C 93.906 33.044,175.992 33.142,179.918 33.604 M109.113 83.172 C 101.458 83.941,99.086 86.624,86.843 108.368 C 85.842 110.147,83.409 114.207,76.572 125.511 C 68.066 139.575,68.221 140.978,80.556 161.506 C 82.169 164.191,83.890 167.078,84.379 167.922 C 84.868 168.766,85.648 170.084,86.111 170.851 C 87.089 172.471,88.598 175.105,92.859 182.631 C 99.313 194.030,102.508 196.710,110.252 197.220 C 117.821 197.719,160.745 197.389,163.180 196.813 C 165.805 196.192,168.243 194.853,169.909 193.116 C 171.573 191.382,174.551 186.943,175.769 184.379 C 176.098 183.689,176.602 182.789,176.889 182.379 C 177.177 181.970,177.798 180.903,178.269 180.008 C 178.740 179.114,179.733 177.315,180.476 176.011 C 181.220 174.707,182.276 172.824,182.824 171.827 C 183.372 170.830,184.387 169.073,185.080 167.922 C 185.772 166.771,186.682 165.226,187.102 164.488 C 187.522 163.750,188.243 162.534,188.703 161.787 C 192.420 155.754,193.960 153.078,196.893 147.559 L 198.450 144.630 198.458 139.888 L 198.466 135.146 197.227 132.934 C 196.546 131.716,195.604 130.128,195.135 129.404 C 194.666 128.680,193.717 127.060,193.026 125.804 C 192.336 124.548,191.379 122.930,190.900 122.209 C 190.421 121.487,189.754 120.400,189.418 119.793 C 189.082 119.186,188.192 117.685,187.439 116.457 C 186.686 115.230,185.696 113.536,185.240 112.692 C 184.783 111.848,184.027 110.593,183.559 109.902 C 183.091 109.212,182.708 108.533,182.707 108.395 C 182.706 108.256,182.410 107.754,182.047 107.279 C 181.685 106.804,180.991 105.662,180.505 104.742 C 180.019 103.821,179.002 102.001,178.245 100.697 C 177.488 99.393,176.606 97.762,176.285 97.071 C 172.761 89.489,167.997 84.721,162.729 83.504 C 160.558 83.003,113.689 82.713,109.113 83.172 " stroke="none" fill="none" fill-rule="none"></path></g></svg>